<svg width="264" height="90" viewBox="0 0 264 90" fill="none" xmlns="http://www.w3.org/2000/svg">
<path d="M98.9707 24.4746C98.7715 27.2285 97.752 29.3965 95.9121 30.9785C94.084 32.5605 91.6699 33.3516 88.6699 33.3516C85.3887 33.3516 82.8047 32.25 80.918 30.0469C79.043 27.832 78.1055 24.7969 78.1055 20.9414V19.377C78.1055 16.916 78.5391 14.748 79.4062 12.873C80.2734 10.998 81.5098 9.5625 83.1152 8.56641C84.7324 7.55859 86.6074 7.05469 88.7402 7.05469C91.6934 7.05469 94.0723 7.8457 95.877 9.42773C97.6816 11.0098 98.7246 13.2305 99.0059 16.0898H93.7324C93.6035 14.4375 93.1406 13.2422 92.3438 12.5039C91.5586 11.7539 90.3574 11.3789 88.7402 11.3789C86.9824 11.3789 85.6641 12.0117 84.7852 13.2773C83.918 14.5312 83.4727 16.4824 83.4492 19.1309V21.0645C83.4492 23.8301 83.8652 25.8516 84.6973 27.1289C85.541 28.4062 86.8652 29.0449 88.6699 29.0449C90.2988 29.0449 91.5117 28.6758 92.3086 27.9375C93.1172 27.1875 93.5801 26.0332 93.6973 24.4746H98.9707ZM107.461 33H102.363V6H107.461V33ZM117.146 33H112.066V13.9805H117.146V33ZM115.652 6.26367H121.189L116.32 11.7129H112.189L115.652 6.26367ZM126.217 13.9805L126.375 16.1777C127.734 14.4785 129.557 13.6289 131.842 13.6289C133.857 13.6289 135.357 14.2207 136.342 15.4043C137.326 16.5879 137.83 18.3574 137.854 20.7129V33H132.773V20.8359C132.773 19.7578 132.539 18.9785 132.07 18.498C131.602 18.0059 130.822 17.7598 129.732 17.7598C128.303 17.7598 127.23 18.3691 126.516 19.5879V33H121.436V13.9805H126.217ZM147.082 33H141.984V13.9805H147.082V33ZM141.686 9.05859C141.686 8.29688 141.938 7.66992 142.441 7.17773C142.957 6.68555 143.654 6.43945 144.533 6.43945C145.4 6.43945 146.092 6.68555 146.607 7.17773C147.123 7.66992 147.381 8.29688 147.381 9.05859C147.381 9.83203 147.117 10.4648 146.59 10.957C146.074 11.4492 145.389 11.6953 144.533 11.6953C143.678 11.6953 142.986 11.4492 142.459 10.957C141.943 10.4648 141.686 9.83203 141.686 9.05859ZM159.193 29.2559C160.131 29.2559 160.893 28.998 161.479 28.4824C162.064 27.9668 162.369 27.2812 162.393 26.4258H167.156C167.145 27.7148 166.793 28.8984 166.102 29.9766C165.41 31.043 164.461 31.875 163.254 32.4727C162.059 33.0586 160.734 33.3516 159.281 33.3516C156.562 33.3516 154.418 32.4902 152.848 30.7676C151.277 29.0332 150.492 26.6426 150.492 23.5957V23.2617C150.492 20.332 151.271 17.9941 152.83 16.248C154.389 14.502 156.527 13.6289 159.246 13.6289C161.625 13.6289 163.529 14.3086 164.959 15.668C166.4 17.0156 167.133 18.8145 167.156 21.0645H162.393C162.369 20.0801 162.064 19.2832 161.479 18.6738C160.893 18.0527 160.119 17.7422 159.158 17.7422C157.975 17.7422 157.078 18.1758 156.469 19.043C155.871 19.8984 155.572 21.293 155.572 23.2266V23.7539C155.572 25.7109 155.871 27.1172 156.469 27.9727C157.066 28.8281 157.975 29.2559 159.193 29.2559ZM181.078 33C180.844 32.543 180.674 31.9746 180.568 31.2949C179.338 32.666 177.738 33.3516 175.77 33.3516C173.906 33.3516 172.359 32.8125 171.129 31.7344C169.91 30.6562 169.301 29.2969 169.301 27.6562C169.301 25.6406 170.045 24.0938 171.533 23.0156C173.033 21.9375 175.195 21.3926 178.02 21.3809H180.357V20.291C180.357 19.4121 180.129 18.709 179.672 18.1816C179.227 17.6543 178.518 17.3906 177.545 17.3906C176.689 17.3906 176.016 17.5957 175.523 18.0059C175.043 18.416 174.803 18.9785 174.803 19.6934H169.723C169.723 18.5918 170.062 17.5723 170.742 16.6348C171.422 15.6973 172.383 14.9648 173.625 14.4375C174.867 13.8984 176.262 13.6289 177.809 13.6289C180.152 13.6289 182.01 14.2207 183.381 15.4043C184.764 16.5762 185.455 18.2285 185.455 20.3613V28.6055C185.467 30.4102 185.719 31.7754 186.211 32.7012V33H181.078ZM176.877 29.4668C177.627 29.4668 178.318 29.3027 178.951 28.9746C179.584 28.6348 180.053 28.1836 180.357 27.6211V24.3516H178.459C175.916 24.3516 174.562 25.2305 174.398 26.9883L174.381 27.2871C174.381 27.9199 174.604 28.4414 175.049 28.8516C175.494 29.2617 176.104 29.4668 176.877 29.4668ZM51.8965 62.7832C51.8965 65.3027 51.4512 67.5117 50.5605 69.4102C49.6699 71.3086 48.3926 72.7734 46.7285 73.8047C45.0762 74.8359 43.1777 75.3516 41.0332 75.3516C38.9121 75.3516 37.0195 74.8418 35.3555 73.8223C33.6914 72.8027 32.4023 71.3496 31.4883 69.4629C30.5742 67.5645 30.1113 65.3848 30.0996 62.9238V61.6582C30.0996 59.1387 30.5508 56.9238 31.4531 55.0137C32.3672 53.0918 33.6504 51.6211 35.3027 50.6016C36.9668 49.5703 38.8652 49.0547 40.998 49.0547C43.1309 49.0547 45.0234 49.5703 46.6758 50.6016C48.3398 51.6211 49.623 53.0918 50.5254 55.0137C51.4395 56.9238 51.8965 59.1328 51.8965 61.6406V62.7832ZM46.5527 61.623C46.5527 58.9395 46.0723 56.9004 45.1113 55.5059C44.1504 54.1113 42.7793 53.4141 40.998 53.4141C39.2285 53.4141 37.8633 54.1055 36.9023 55.4883C35.9414 56.8594 35.4551 58.875 35.4434 61.5352V62.7832C35.4434 65.3965 35.9238 67.4238 36.8848 68.8652C37.8457 70.3066 39.2285 71.0273 41.0332 71.0273C42.8027 71.0273 44.1621 70.3359 45.1113 68.9531C46.0605 67.5586 46.541 65.5312 46.5527 62.8711V61.623ZM54.6035 65.3496C54.6035 62.3848 55.2656 60.0234 56.5898 58.2656C57.9258 56.5078 59.748 55.6289 62.0566 55.6289C63.9082 55.6289 65.4375 56.3203 66.6445 57.7031V48H71.7422V75H67.1543L66.9082 72.9785C65.6426 74.5605 64.0137 75.3516 62.0215 75.3516C59.7832 75.3516 57.9844 74.4727 56.625 72.7148C55.2773 70.9453 54.6035 68.4902 54.6035 65.3496ZM59.6836 65.7188C59.6836 67.5 59.9941 68.8652 60.6152 69.8145C61.2363 70.7637 62.1387 71.2383 63.3223 71.2383C64.8926 71.2383 66 70.5762 66.6445 69.252V61.7461C66.0117 60.4219 64.916 59.7598 63.3574 59.7598C60.9082 59.7598 59.6836 61.7461 59.6836 65.7188ZM74.8887 65.3145C74.8887 63.4277 75.252 61.7461 75.9785 60.2695C76.7051 58.793 77.748 57.6504 79.1074 56.8418C80.4785 56.0332 82.0664 55.6289 83.8711 55.6289C86.4375 55.6289 88.5293 56.4141 90.1465 57.9844C91.7754 59.5547 92.6836 61.6875 92.8711 64.3828L92.9062 65.6836C92.9062 68.6016 92.0918 70.9453 90.4629 72.7148C88.834 74.4727 86.6484 75.3516 83.9062 75.3516C81.1641 75.3516 78.9727 74.4727 77.332 72.7148C75.7031 70.957 74.8887 68.5664 74.8887 65.543V65.3145ZM79.9688 65.6836C79.9688 67.4883 80.3086 68.8711 80.9883 69.832C81.668 70.7812 82.6406 71.2559 83.9062 71.2559C85.1367 71.2559 86.0977 70.7871 86.7891 69.8496C87.4805 68.9004 87.8262 67.3887 87.8262 65.3145C87.8262 63.5449 87.4805 62.1738 86.7891 61.2012C86.0977 60.2285 85.125 59.7422 83.8711 59.7422C82.6289 59.7422 81.668 60.2285 80.9883 61.2012C80.3086 62.1621 79.9688 63.6562 79.9688 65.6836ZM100.711 55.9805L100.869 58.1777C102.229 56.4785 104.051 55.6289 106.336 55.6289C108.352 55.6289 109.852 56.2207 110.836 57.4043C111.82 58.5879 112.324 60.3574 112.348 62.7129V75H107.268V62.8359C107.268 61.7578 107.033 60.9785 106.564 60.498C106.096 60.0059 105.316 59.7598 104.227 59.7598C102.797 59.7598 101.725 60.3691 101.01 61.5879V75H95.9297V55.9805H100.711ZM122.297 51.3047V55.9805H125.549V59.707H122.297V69.1992C122.297 69.9023 122.432 70.4062 122.701 70.7109C122.971 71.0156 123.486 71.168 124.248 71.168C124.811 71.168 125.309 71.127 125.742 71.0449V74.8945C124.746 75.1992 123.721 75.3516 122.666 75.3516C119.104 75.3516 117.287 73.5527 117.217 69.9551V59.707H114.439V55.9805H117.217V51.3047H122.297ZM127.061 65.3145C127.061 63.4277 127.424 61.7461 128.15 60.2695C128.877 58.793 129.92 57.6504 131.279 56.8418C132.65 56.0332 134.238 55.6289 136.043 55.6289C138.609 55.6289 140.701 56.4141 142.318 57.9844C143.947 59.5547 144.855 61.6875 145.043 64.3828L145.078 65.6836C145.078 68.6016 144.264 70.9453 142.635 72.7148C141.006 74.4727 138.82 75.3516 136.078 75.3516C133.336 75.3516 131.145 74.4727 129.504 72.7148C127.875 70.957 127.061 68.5664 127.061 65.543V65.3145ZM132.141 65.6836C132.141 67.4883 132.48 68.8711 133.16 69.832C133.84 70.7812 134.812 71.2559 136.078 71.2559C137.309 71.2559 138.27 70.7871 138.961 69.8496C139.652 68.9004 139.998 67.3887 139.998 65.3145C139.998 63.5449 139.652 62.1738 138.961 61.2012C138.27 60.2285 137.297 59.7422 136.043 59.7422C134.801 59.7422 133.84 60.2285 133.16 61.2012C132.48 62.1621 132.141 63.6562 132.141 65.6836ZM153.568 75H148.471V48H153.568V75ZM156.979 65.3145C156.979 63.4277 157.342 61.7461 158.068 60.2695C158.795 58.793 159.838 57.6504 161.197 56.8418C162.568 56.0332 164.156 55.6289 165.961 55.6289C168.527 55.6289 170.619 56.4141 172.236 57.9844C173.865 59.5547 174.773 61.6875 174.961 64.3828L174.996 65.6836C174.996 68.6016 174.182 70.9453 172.553 72.7148C170.924 74.4727 168.738 75.3516 165.996 75.3516C163.254 75.3516 161.062 74.4727 159.422 72.7148C157.793 70.957 156.979 68.5664 156.979 65.543V65.3145ZM162.059 65.6836C162.059 67.4883 162.398 68.8711 163.078 69.832C163.758 70.7812 164.73 71.2559 165.996 71.2559C167.227 71.2559 168.188 70.7871 168.879 69.8496C169.57 68.9004 169.916 67.3887 169.916 65.3145C169.916 63.5449 169.57 62.1738 168.879 61.2012C168.188 60.2285 167.215 59.7422 165.961 59.7422C164.719 59.7422 163.758 60.2285 163.078 61.2012C162.398 62.1621 162.059 63.6562 162.059 65.6836ZM166.963 48H172.5L167.631 53.4492H163.5L166.963 48ZM177.387 65.3496C177.387 62.4316 178.078 60.082 179.461 58.3008C180.855 56.5195 182.73 55.6289 185.086 55.6289C187.172 55.6289 188.795 56.3438 189.955 57.7734L190.166 55.9805H194.771V74.3672C194.771 76.0312 194.391 77.4785 193.629 78.709C192.879 79.9395 191.818 80.877 190.447 81.5215C189.076 82.166 187.471 82.4883 185.631 82.4883C184.236 82.4883 182.877 82.207 181.553 81.6445C180.229 81.0938 179.227 80.3789 178.547 79.5L180.797 76.4062C182.062 77.8242 183.598 78.5332 185.402 78.5332C186.75 78.5332 187.799 78.1699 188.549 77.4434C189.299 76.7285 189.674 75.709 189.674 74.3848V73.3652C188.502 74.6895 186.961 75.3516 185.051 75.3516C182.766 75.3516 180.914 74.4609 179.496 72.6797C178.09 70.8867 177.387 68.5137 177.387 65.5605V65.3496ZM182.467 65.7188C182.467 67.4414 182.812 68.7949 183.504 69.7793C184.195 70.752 185.145 71.2383 186.352 71.2383C187.898 71.2383 189.006 70.6582 189.674 69.498V61.5C188.994 60.3398 187.898 59.7598 186.387 59.7598C185.168 59.7598 184.207 60.2578 183.504 61.2539C182.812 62.25 182.467 63.7383 182.467 65.7188ZM204.053 75H198.955V55.9805H204.053V75ZM198.656 51.0586C198.656 50.2969 198.908 49.6699 199.412 49.1777C199.928 48.6855 200.625 48.4395 201.504 48.4395C202.371 48.4395 203.062 48.6855 203.578 49.1777C204.094 49.6699 204.352 50.2969 204.352 51.0586C204.352 51.832 204.088 52.4648 203.561 52.957C203.045 53.4492 202.359 53.6953 201.504 53.6953C200.648 53.6953 199.957 53.4492 199.43 52.957C198.914 52.4648 198.656 51.832 198.656 51.0586ZM216.164 71.2559C217.102 71.2559 217.863 70.998 218.449 70.4824C219.035 69.9668 219.34 69.2812 219.363 68.4258H224.127C224.115 69.7148 223.764 70.8984 223.072 71.9766C222.381 73.043 221.432 73.875 220.225 74.4727C219.029 75.0586 217.705 75.3516 216.252 75.3516C213.533 75.3516 211.389 74.4902 209.818 72.7676C208.248 71.0332 207.463 68.6426 207.463 65.5957V65.2617C207.463 62.332 208.242 59.9941 209.801 58.248C211.359 56.502 213.498 55.6289 216.217 55.6289C218.596 55.6289 220.5 56.3086 221.93 57.668C223.371 59.0156 224.104 60.8145 224.127 63.0645H219.363C219.34 62.0801 219.035 61.2832 218.449 60.6738C217.863 60.0527 217.09 59.7422 216.129 59.7422C214.945 59.7422 214.049 60.1758 213.439 61.043C212.842 61.8984 212.543 63.293 212.543 65.2266V65.7539C212.543 67.7109 212.842 69.1172 213.439 69.9727C214.037 70.8281 214.945 71.2559 216.164 71.2559ZM238.049 75C237.814 74.543 237.645 73.9746 237.539 73.2949C236.309 74.666 234.709 75.3516 232.74 75.3516C230.877 75.3516 229.33 74.8125 228.1 73.7344C226.881 72.6562 226.271 71.2969 226.271 69.6562C226.271 67.6406 227.016 66.0938 228.504 65.0156C230.004 63.9375 232.166 63.3926 234.99 63.3809H237.328V62.291C237.328 61.4121 237.1 60.709 236.643 60.1816C236.197 59.6543 235.488 59.3906 234.516 59.3906C233.66 59.3906 232.986 59.5957 232.494 60.0059C232.014 60.416 231.773 60.9785 231.773 61.6934H226.693C226.693 60.5918 227.033 59.5723 227.713 58.6348C228.393 57.6973 229.354 56.9648 230.596 56.4375C231.838 55.8984 233.232 55.6289 234.779 55.6289C237.123 55.6289 238.98 56.2207 240.352 57.4043C241.734 58.5762 242.426 60.2285 242.426 62.3613V70.6055C242.438 72.4102 242.689 73.7754 243.182 74.7012V75H238.049ZM233.848 71.4668C234.598 71.4668 235.289 71.3027 235.922 70.9746C236.555 70.6348 237.023 70.1836 237.328 69.6211V66.3516H235.43C232.887 66.3516 231.533 67.2305 231.369 68.9883L231.352 69.2871C231.352 69.9199 231.574 70.4414 232.02 70.8516C232.465 71.2617 233.074 71.4668 233.848 71.4668Z" fill="white"/>
<line x1="241.932" y1="88.5097" x2="21.3193" y2="87.039" stroke="white" stroke-width="2"/>
</svg>
